<?xml version="1.0" encoding="utf-8"?>
<svg version="1.1" xmlns:xlink="http://www.w3.org/1999/xlink" width="67px" height="65px" xmlns="http://www.w3.org/2000/svg">
  <g transform="matrix(1 0 0 1 -207 -636 )">
    <path d="M 240.5 636  C 259.26 636  274 650.3  274 668.5  C 274 686.7  259.26 701  240.5 701  C 221.74 701  207 686.7  207 668.5  C 207 650.3  221.74 636  240.5 636  Z " fill-rule="nonzero" fill="#ffffff" stroke="none" />
    <path d="M 240.5 636.5  C 258.98 636.5  273.5 650.58  273.5 668.5  C 273.5 686.42  258.98 700.5  240.5 700.5  C 222.02 700.5  207.5 686.42  207.5 668.5  C 207.5 650.58  222.02 636.5  240.5 636.5  Z " stroke-width="1" stroke="#797979" fill="none" />
  </g>
</svg>